<svg xmlns="http://www.w3.org/2000/svg" viewBox="0 0 760 430" role="img" aria-labelledby="title desc">
  <title id="title">FORGE webpage preview</title>
  <desc id="desc">A warm retro webpage mockup with the FORGE logo and abstract product review layout.</desc>
  <defs>
    <pattern id="paper-grid" width="28" height="28" patternUnits="userSpaceOnUse">
      <path d="M28 0H0v28" fill="none" stroke="#eadfce" stroke-width="1"/>
    </pattern>
    <filter id="shadow" x="-10%" y="-10%" width="130%" height="130%">
      <feDropShadow dx="10" dy="10" stdDeviation="0" flood-color="#c7773e"/>
    </filter>
  </defs>
  <rect width="760" height="430" rx="10" fill="#f6f1e8"/>
  <rect width="760" height="430" rx="10" fill="url(#paper-grid)"/>
  <g filter="url(#shadow)">
    <rect x="52" y="46" width="656" height="326" rx="8" fill="#fffaf1" stroke="#211d18" stroke-width="3"/>
    <path d="M52 98h656" stroke="#211d18" stroke-width="3"/>
    <rect x="76" y="64" width="16" height="16" rx="4" fill="#ff5c00"/>
    <rect x="104" y="64" width="16" height="16" rx="4" fill="#ffd166" stroke="#211d18" stroke-width="2"/>
    <rect x="132" y="64" width="16" height="16" rx="4" fill="#fffaf1" stroke="#211d18" stroke-width="2"/>
    <g transform="translate(582 61)">
      <rect x="4" y="4" width="35" height="35" rx="5" fill="#ff5c00"/>
      <rect width="35" height="35" rx="5" fill="#211d18"/>
      <text x="17.5" y="24" text-anchor="middle" font-family="Space Grotesk, Arial, sans-serif" font-size="17" font-weight="700" fill="#fffaf1">F</text>
      <text x="50" y="24" font-family="Space Grotesk, Arial, sans-serif" font-size="18" font-weight="700" fill="#211d18">FORGE</text>
    </g>
    <g font-family="Atkinson Hyperlegible, Arial, sans-serif">
      <rect x="86" y="134" width="246" height="26" rx="5" fill="#211d18" opacity="0.94"/>
      <rect x="86" y="174" width="358" height="18" rx="5" fill="#d8d0c2"/>
      <rect x="86" y="204" width="304" height="18" rx="5" fill="#eadfce"/>
      <rect x="86" y="252" width="178" height="72" rx="8" fill="#ffd166" stroke="#211d18" stroke-width="2"/>
      <rect x="108" y="276" width="92" height="12" rx="4" fill="#211d18"/>
      <rect x="108" y="300" width="118" height="10" rx="4" fill="#5e5b55" opacity="0.58"/>
      <rect x="292" y="252" width="178" height="72" rx="8" fill="#fff0dc" stroke="#211d18" stroke-width="2"/>
      <rect x="314" y="276" width="104" height="12" rx="4" fill="#211d18"/>
      <rect x="314" y="300" width="96" height="10" rx="4" fill="#5e5b55" opacity="0.58"/>
      <rect x="498" y="252" width="156" height="72" rx="8" fill="#ffe0cc" stroke="#211d18" stroke-width="2"/>
      <rect x="520" y="276" width="68" height="12" rx="4" fill="#211d18"/>
      <rect x="520" y="300" width="92" height="10" rx="4" fill="#5e5b55" opacity="0.58"/>
    </g>
  </g>
</svg>
